{"title":"Suicide.Squad.2016.720p.HC.HDRiP.x264.AC3-VAiN","uid":15993179,"size":2860998803,"categoryP":"video","categoryS":"hd___movies","magnet":"?xt=urn:btih:700d3e771f17177430aa7a007dea3c2ab70eb521&amp;dn=Suicide.Squad.2016.720p.HC.HDRiP.x264.AC3-VAiN&amp;tr=udp%3A%2F%2Ftracker.leechers-paradise.org%3A6969&amp;tr=udp%3A%2F%2Fzer0day.ch%3A1337&amp;tr=udp%3A%2F%2Fopen.demonii.com%3A1337&amp;tr=udp%3A%2F%2Ftracker.coppersurfer.tk%3A6969&amp;tr=udp%3A%2F%2Fexodus.desync.com%3A6969","seeders":41,"leechers":88,"uploader":"makintos13","files":3,"time":1476042962,"description":"Screens:\r\n \nhttps://imgmak.com/aJe\r\n\r\n \nhttps://imgmak.com/aJg\r\n\r\n \nhttps://imgmak.com/aJo\r\n\r\n \nhttps://imgmak.com/aJN\r\n\r\n\r\n\r\nT E C H N i C A L . i N F O . . .\r\n\r\nBasic Information\r\nFormat                      : Matroska\r\nFormat version              : Version 4 / Version 2\r\nFile size                   : 2.65 GiB\r\nDuration                    : 2 h 2 min\r\nOverall bit rate mode       : Variable\r\nOverall bit rate            : 3 087 kb/s\r\nEncoded date                : UTC 2016-10-09 14:57:55\r\nWriting application         : mkvmerge v9.4.2 ('So High') 64bit\r\nWriting library             : libebml v1.3.4 + libmatroska v1.4.5\r\n\r\nVideo\r\nID                          : 1\r\nFormat                      : AVC\r\nFormat/Info                 : Advanced Video Codec\r\nFormat profile              :   \r\nFormat settings, CABAC      : Yes\r\nFormat settings, ReFrames   : 3 frames\r\nCodec ID                    : V_MPEG4/ISO/AVC\r\nDuration                    : 2 h 2 min\r\nBit rate mode               : Variable\r\nBit rate                    : 2 893 kb/s\r\nMaximum bit rate            : 40.0 Mb/s\r\nWidth                       : 1 280 pixels\r\nHeight                      : 536 pixels\r\nDisplay aspect ratio        : 2.40:1\r\nFrame rate mode             : Constant\r\nFrame rate                  : 29.970 (30000/1001) FPS\r\nColor space                 : YUV\r\nChroma subsampling          : 4:2:0\r\nBit depth                   : 8 bits\r\nScan type                   : Progressive\r\nBits/(Pixel*Frame)          : 0.141\r\nStream size                 : 2.48 GiB (94%)\r\nWriting library             : x264 core 148 r2638 7599210\r\n\r\nAudio\r\nID                          : 2\r\nFormat                      : AC-3\r\nFormat/Info                 : Audio Coding 3\r\nMode extension              : CM (complete main)\r\nFormat settings, Endianness : Big\r\nCodec ID                    : A_AC3\r\nDuration                    : 2 h 2 min\r\nBit rate mode               : Constant\r\nBit rate                    : 192 kb/s\r\nChannel(s)                  : 2 channels\r\nChannel positions           : Front: L R\r\nSampling rate               : 48.0 kHz\r\nFrame rate                  : 31.250 FPS (1536 spf)\r\nCompression mode            : Lossy\r\nStream size                 : 169 MiB (6%)\r\nDefault                     : Yes\r\nForced                      : No\r\n\r\n\r\n\r\nE N C O D E R S . N O T E S . . .       \r\n\r\nSOURCE......: ViDEO...??????\r\n............: AUDiO...??????\r\nSAMPLE......: Yippers \r\nADDED NOTE","torrent":{"xt":"urn:btih:700d3e771f17177430aa7a007dea3c2ab70eb521","amp;dn":"Suicide.Squad.2016.720p.HC.HDRiP.x264.AC3-VAiN","amp;tr":["udp%3A%2F%2Ftracker.leechers-paradise.org%3A6969","udp%3A%2F%2Fzer0day.ch%3A1337","udp%3A%2F%2Fopen.demonii.com%3A1337","udp%3A%2F%2Ftracker.coppersurfer.tk%3A6969","udp%3A%2F%2Fexodus.desync.com%3A6969"],"infoHash":"700d3e771f17177430aa7a007dea3c2ab70eb521","infoHashBuffer":{"type":"Buffer","data":[112,13,62,119,31,23,23,116,48,170,122,0,125,234,60,42,183,14,181,33]},"announce":[],"urlList":[]}}